<?xml version="1.0" standalone="no"?>
 <!DOCTYPE svg PUBLIC "-//W3C//DTD SVG 1.1//EN" 
 "http://www.w3.org/Graphics/SVG/1.1/DTD/svg11.dtd"> 
<svg xmlns="http://www.w3.org/2000/svg" version="1.1" 
    width="29.7002cm" height="21.0007cm" viewBox="0 0 116929 82679 ">
<title>SVG Picture created as blinker.svg date 2013/10/27 11:46:09 </title>
  <desc>Picture generated by Eeschema-SVG </desc>
<g style="fill:#000000; fill-opacity:1;stroke:#000000; stroke-opacity:1;
stroke-linecap:round; stroke-linejoin:round; "
 transform="translate(0 0) scale(1 1)">
</g>
<g style="fill:#840000; fill-opacity:0.0; 
stroke:#840000; stroke-width:100; stroke-opacity:1; 
stroke-linecap:round; stroke-linejoin:round;">
<rect x="3940" y="3940" width="109050" height="74800" rx="0" />
<rect x="4650" y="4650" width="107630" height="73380" rx="0" />
<path d="M25750 3940
L25750 4650
" />
<path d="M15000 4520
L14710 4520
" />
<path d="M14850 4520
L14850 4010
L14800 4080
L14760 4130
L14710 4150
" />
<path d="M25750 78740
L25750 78030
" />
<path d="M15000 78620
L14710 78620
" />
<path d="M14850 78620
L14850 78110
L14800 78180
L14760 78230
L14710 78250
" />
<path d="M47560 3940
L47560 4650
" />
<path d="M36520 4050
L36540 4030
L36590 4010
L36710 4010
L36760 4030
L36780 4050
L36810 4100
L36810 4150
L36780 4220
L36490 4520
L36810 4520
" />
<path d="M47560 78740
L47560 78030
" />
<path d="M36520 78150
L36540 78130
L36590 78110
L36710 78110
L36760 78130
L36780 78150
L36810 78200
L36810 78250
L36780 78320
L36490 78620
L36810 78620
" />
<path d="M69370 3940
L69370 4650
" />
<path d="M58300 4010
L58620 4010
L58450 4200
L58520 4200
L58570 4220
L58590 4250
L58620 4300
L58620 4420
L58590 4470
L58570 4490
L58520 4520
L58380 4520
L58330 4490
L58300 4470
" />
<path d="M69370 78740
L69370 78030
" />
<path d="M58300 78110
L58620 78110
L58450 78300
L58520 78300
L58570 78320
L58590 78350
L58620 78400
L58620 78520
L58590 78570
L58570 78590
L58520 78620
L58380 78620
L58330 78590
L58300 78570
" />
<path d="M91180 3940
L91180 4650
" />
<path d="M80380 4180
L80380 4520
" />
<path d="M80260 3980
L80140 4350
L80450 4350
" />
<path d="M91180 78740
L91180 78030
" />
<path d="M80380 78280
L80380 78620
" />
<path d="M80260 78080
L80140 78450
L80450 78450
" />
<path d="M102210 4010
L101970 4010
L101950 4250
L101970 4220
L102020 4200
L102140 4200
L102190 4220
L102210 4250
L102240 4300
L102240 4420
L102210 4470
L102190 4490
L102140 4520
L102020 4520
L101970 4490
L101950 4470
" />
<path d="M102210 78110
L101970 78110
L101950 78350
L101970 78320
L102020 78300
L102140 78300
L102190 78320
L102210 78350
L102240 78400
L102240 78520
L102210 78570
L102190 78590
L102140 78620
L102020 78620
L101970 78590
L101950 78570
" />
<path d="M3940 28870
L4650 28870
" />
<path d="M4170 16490
L4410 16490
" />
<path d="M4120 16640
L4290 16130
L4460 16640
" />
<path d="M112990 28870
L112280 28870
" />
<path d="M112520 18050
L112760 18050
" />
<path d="M112470 18200
L112640 17690
L112810 18200
" />
<path d="M3940 53800
L4650 53800
" />
<path d="M4330 41300
L4400 41320
L4430 41350
L4450 41400
L4450 41470
L4430 41520
L4400 41540
L4360 41570
L4160 41570
L4160 41060
L4330 41060
L4380 41080
L4400 41100
L4430 41150
L4430 41200
L4400 41250
L4380 41270
L4330 41300
L4160 41300
" />
<path d="M112990 53800
L112280 53800
" />
<path d="M112680 42860
L112750 42880
L112780 42910
L112800 42960
L112800 43030
L112780 43080
L112750 43100
L112710 43130
L112510 43130
L112510 42620
L112680 42620
L112730 42640
L112750 42660
L112780 42710
L112780 42760
L112750 42810
L112730 42830
L112680 42860
L112510 42860
" />
<path d="M4450 66450
L4430 66470
L4360 66500
L4310 66500
L4230 66470
L4190 66420
L4160 66370
L4140 66280
L4140 66200
L4160 66110
L4190 66060
L4230 66010
L4310 65990
L4360 65990
L4430 66010
L4450 66030
" />
<path d="M112800 68010
L112780 68030
L112710 68060
L112660 68060
L112580 68030
L112540 67980
L112510 67930
L112490 67840
L112490 67760
L112510 67670
L112540 67620
L112580 67570
L112660 67550
L112710 67550
L112780 67570
L112800 67590
" />
<path d="M77040 75670
L77040 76850
" />
<path d="M70550 75670
L112280 75670
" />
<path d="M70550 76850
L112280 76850
" />
<path d="M103030 75670
L103030 78030
" />
<path d="M70550 74490
L112280 74490
" />
<path d="M71250 74130
L71340 74160
L71480 74160
L71530 74130
L71560 74110
L71590 74050
L71590 73990
L71560 73940
L71530 73910
L71480 73880
L71360 73850
L71310 73820
L71280 73800
L71250 73740
L71250 73680
L71280 73630
L71310 73600
L71360 73570
L71510 73570
L71590 73600
" />
<path d="M71840 74160
L71840 73570
" />
<path d="M72090 74160
L72090 73850
L72070 73800
L72010 73770
L71920 73770
L71870 73800
L71840 73820
" />
<path d="M72600 74130
L72540 74160
L72430 74160
L72370 74130
L72340 74080
L72340 73850
L72370 73800
L72430 73770
L72540 73770
L72600 73800
L72620 73850
L72620 73910
L72340 73970
" />
<path d="M73110 74130
L73050 74160
L72940 74160
L72880 74130
L72850 74080
L72850 73850
L72880 73800
L72940 73770
L73050 73770
L73110 73800
L73130 73850
L73130 73910
L72850 73970
" />
<path d="M73310 73770
L73530 73770
" />
<path d="M73390 73570
L73390 74080
L73420 74130
L73470 74160
L73530 74160
" />
<path d="M73730 74110
L73760 74130
L73730 74160
L73700 74130
L73730 74110
L73730 74160
" />
<path d="M73730 73800
L73760 73820
L73730 73850
L73700 73820
L73730 73800
L73730 73850
" />
<path d="M74880 73540
L74380 74300
" />
<path d="M75080 74160
L75080 73570
" />
<path d="M75330 74160
L75330 73850
L75310 73800
L75250 73770
L75160 73770
L75110 73800
L75080 73820
" />
<path d="M75690 74160
L75640 74130
L75610 74110
L75580 74050
L75580 73880
L75610 73820
L75640 73800
L75690 73770
L75780 73770
L75840 73800
L75860 73820
L75890 73880
L75890 74050
L75860 74110
L75840 74130
L75780 74160
L75690 74160
" />
<path d="M76140 74160
L76140 73770
" />
<path d="M76140 73820
L76170 73800
L76220 73770
L76310 73770
L76370 73800
L76390 73850
L76390 74160
" />
<path d="M76390 73850
L76420 73800
L76480 73770
L76560 73770
L76620 73800
L76650 73850
L76650 74160
" />
<path d="M77160 74130
L77100 74160
L76990 74160
L76930 74130
L76900 74080
L76900 73850
L76930 73800
L76990 73770
L77100 73770
L77160 73800
L77180 73850
L77180 73910
L76900 73970
" />
<path d="M77860 73540
L77360 74300
" />
<path d="M78310 73770
L78310 74250
L78290 74300
L78260 74330
L78200 74360
L78120 74360
L78060 74330
" />
<path d="M78310 74130
L78260 74160
L78140 74160
L78090 74130
L78060 74110
L78030 74050
L78030 73880
L78060 73820
L78090 73800
L78140 73770
L78260 73770
L78310 73800
" />
<path d="M78530 73770
L78670 74160
" />
<path d="M78820 73770
L78670 74160
L78620 74300
L78590 74330
L78530 74360
" />
<path d="M78980 73770
L79120 74160
L79270 73770
" />
<path d="M79740 73770
L79740 74160
" />
<path d="M79490 73770
L79490 74080
L79520 74130
L79570 74160
L79660 74160
L79720 74130
L79740 74110
" />
<path d="M80020 73770
L80020 74160
" />
<path d="M80020 73820
L80050 73800
L80100 73770
L80190 73770
L80250 73800
L80270 73850
L80270 74160
" />
<path d="M80800 74160
L80800 73850
L80780 73800
L80720 73770
L80610 73770
L80550 73800
" />
<path d="M80800 74130
L80750 74160
L80610 74160
L80550 74130
L80520 74080
L80520 74020
L80550 73970
L80610 73940
L80750 73940
L80800 73910
" />
<path d="M81050 74130
L81110 74160
L81220 74160
L81280 74130
L81310 74080
L81310 74050
L81280 73990
L81220 73970
L81140 73970
L81080 73940
L81050 73880
L81050 73850
L81080 73800
L81140 73770
L81220 73770
L81280 73800
" />
<path d="M81980 73540
L81480 74300
" />
<path d="M82430 74160
L82430 73570
" />
<path d="M82430 74130
L82380 74160
L82260 74160
L82210 74130
L82180 74110
L82150 74050
L82150 73880
L82180 73820
L82210 73800
L82260 73770
L82380 73770
L82430 73800
" />
<path d="M82790 74160
L82740 74130
L82710 74110
L82680 74050
L82680 73880
L82710 73820
L82740 73800
L82790 73770
L82880 73770
L82940 73800
L82960 73820
L82990 73880
L82990 74050
L82960 74110
L82940 74130
L82880 74160
L82790 74160
" />
<path d="M83490 74130
L83440 74160
L83320 74160
L83270 74130
L83240 74110
L83210 74050
L83210 73880
L83240 73820
L83270 73800
L83320 73770
L83440 73770
L83490 73800
" />
<path d="M83720 74130
L83780 74160
L83890 74160
L83950 74130
L83980 74080
L83980 74050
L83950 73990
L83890 73970
L83810 73970
L83750 73940
L83720 73880
L83720 73850
L83750 73800
L83810 73770
L83890 73770
L83950 73800
" />
<path d="M84650 73540
L84150 74300
" />
<path d="M85080 74130
L85020 74160
L84910 74160
L84850 74130
L84820 74080
L84820 73850
L84850 73800
L84910 73770
L85020 73770
L85080 73800
L85100 73850
L85100 73910
L84820 73970
" />
<path d="M85440 74160
L85390 74130
L85360 74080
L85360 73570
" />
<path d="M85900 74130
L85840 74160
L85730 74160
L85670 74130
L85640 74080
L85640 73850
L85670 73800
L85730 73770
L85840 73770
L85900 73800
L85920 73850
L85920 73910
L85640 73970
" />
<path d="M86430 74130
L86380 74160
L86260 74160
L86210 74130
L86180 74110
L86150 74050
L86150 73880
L86180 73820
L86210 73800
L86260 73770
L86380 73770
L86430 73800
" />
<path d="M86610 73770
L86830 73770
" />
<path d="M86690 73570
L86690 74080
L86720 74130
L86770 74160
L86830 74160
" />
<path d="M87030 74160
L87030 73770
" />
<path d="M87030 73880
L87060 73820
L87090 73800
L87140 73770
L87200 73770
" />
<path d="M87480 74160
L87430 74130
L87400 74110
L87370 74050
L87370 73880
L87400 73820
L87430 73800
L87480 73770
L87570 73770
L87630 73800
L87650 73820
L87680 73880
L87680 74050
L87650 74110
L87630 74130
L87570 74160
L87480 74160
" />
<path d="M87930 73770
L87930 74160
" />
<path d="M87930 73820
L87960 73800
L88010 73770
L88100 73770
L88160 73800
L88180 73850
L88180 74160
" />
<path d="M88460 74160
L88460 73770
" />
<path d="M88460 73570
L88430 73600
L88460 73630
L88490 73600
L88460 73570
L88460 73630
" />
<path d="M88990 74130
L88940 74160
L88820 74160
L88770 74130
L88740 74110
L88710 74050
L88710 73880
L88740 73820
L88770 73800
L88820 73770
L88940 73770
L88990 73800
" />
<path d="M89220 74130
L89280 74160
L89390 74160
L89450 74130
L89480 74080
L89480 74050
L89450 73990
L89390 73970
L89310 73970
L89250 73940
L89220 73880
L89220 73850
L89250 73800
L89310 73770
L89390 73770
L89450 73800
" />
<path d="M90150 73540
L89650 74300
" />
<path d="M90350 74160
L90350 73570
" />
<path d="M90350 73800
L90410 73770
L90520 73770
L90580 73800
L90600 73820
L90630 73880
L90630 74050
L90600 74110
L90580 74130
L90520 74160
L90410 74160
L90350 74130
" />
<path d="M90960 74160
L90910 74130
L90880 74080
L90880 73570
" />
<path d="M91190 74160
L91190 73770
" />
<path d="M91190 73570
L91160 73600
L91190 73630
L91220 73600
L91190 73570
L91190 73630
" />
<path d="M91470 73770
L91470 74160
" />
<path d="M91470 73820
L91500 73800
L91550 73770
L91640 73770
L91700 73800
L91720 73850
L91720 74160
" />
<path d="M92000 74160
L92000 73570
" />
<path d="M92060 73940
L92230 74160
" />
<path d="M92230 73770
L92000 73990
" />
<path d="M92710 74130
L92650 74160
L92540 74160
L92480 74130
L92450 74080
L92450 73850
L92480 73800
L92540 73770
L92650 73770
L92710 73800
L92730 73850
L92730 73910
L92450 73970
" />
<path d="M92990 74160
L92990 73770
" />
<path d="M92990 73880
L93020 73820
L93050 73800
L93100 73770
L93160 73770
" />
<path d="M93780 73540
L93280 74300
" />
<path d="M93980 74160
L93980 73570
" />
<path d="M93980 73800
L94040 73770
L94150 73770
L94210 73800
L94230 73820
L94260 73880
L94260 74050
L94230 74110
L94210 74130
L94150 74160
L94040 74160
L93980 74130
" />
<path d="M94590 74160
L94540 74130
L94510 74080
L94510 73570
" />
<path d="M94820 74160
L94820 73770
" />
<path d="M94820 73570
L94790 73600
L94820 73630
L94850 73600
L94820 73570
L94820 73630
" />
<path d="M95100 73770
L95100 74160
" />
<path d="M95100 73820
L95130 73800
L95180 73770
L95270 73770
L95330 73800
L95350 73850
L95350 74160
" />
<path d="M95630 74160
L95630 73570
" />
<path d="M95690 73940
L95860 74160
" />
<path d="M95860 73770
L95630 73990
" />
<path d="M96340 74130
L96280 74160
L96170 74160
L96110 74130
L96080 74080
L96080 73850
L96110 73800
L96170 73770
L96280 73770
L96340 73800
L96360 73850
L96360 73910
L96080 73970
" />
<path d="M96620 74160
L96620 73770
" />
<path d="M96620 73880
L96650 73820
L96680 73800
L96730 73770
L96790 73770
" />
<path d="M96990 74110
L97020 74130
L96990 74160
L96960 74130
L96990 74110
L96990 74160
" />
<path d="M97240 74130
L97300 74160
L97410 74160
L97470 74130
L97500 74080
L97500 74050
L97470 73990
L97410 73970
L97330 73970
L97270 73940
L97240 73880
L97240 73850
L97270 73800
L97330 73770
L97410 73770
L97470 73800
" />
<path d="M98000 74130
L97950 74160
L97830 74160
L97780 74130
L97750 74110
L97720 74050
L97720 73880
L97750 73820
L97780 73800
L97830 73770
L97950 73770
L98000 73800
" />
<path d="M98260 74160
L98260 73570
" />
<path d="M98510 74160
L98510 73850
L98490 73800
L98430 73770
L98340 73770
L98290 73800
L98260 73820
" />
<path d="M71480 72670
L71280 72670
" />
<path d="M71280 72980
L71280 72390
L71560 72390
" />
<path d="M71790 72980
L71790 72590
" />
<path d="M71790 72390
L71760 72420
L71790 72450
L71820 72420
L71790 72390
L71790 72450
" />
<path d="M72150 72980
L72100 72950
L72070 72900
L72070 72390
" />
<path d="M72610 72950
L72550 72980
L72440 72980
L72380 72950
L72350 72900
L72350 72670
L72380 72620
L72440 72590
L72550 72590
L72610 72620
L72630 72670
L72630 72730
L72350 72790
" />
<path d="M72890 72930
L72920 72950
L72890 72980
L72860 72950
L72890 72930
L72890 72980
" />
<path d="M72890 72620
L72920 72640
L72890 72670
L72860 72640
L72890 72620
L72890 72670
" />
</g>
<g style="fill:#840000; fill-opacity:0.0; 
stroke:#840000; stroke-width:120; stroke-opacity:1; 
stroke-linecap:round; stroke-linejoin:round;">
<path d="M71200 74750
L71530 74750
" />
<path d="M71360 75340
L71360 74750
" />
<path d="M71730 75340
L71730 74950
" />
<path d="M71730 74750
L71700 74780
L71730 74810
L71760 74780
L71730 74750
L71730 74810
" />
<path d="M71930 74950
L72150 74950
" />
<path d="M72010 74750
L72010 75260
L72040 75310
L72090 75340
L72150 75340
" />
<path d="M72430 75340
L72380 75310
L72350 75260
L72350 74750
" />
<path d="M72890 75310
L72830 75340
L72720 75340
L72660 75310
L72630 75260
L72630 75030
L72660 74980
L72720 74950
L72830 74950
L72890 74980
L72910 75030
L72910 75090
L72630 75150
" />
<path d="M73170 75290
L73200 75310
L73170 75340
L73140 75310
L73170 75290
L73170 75340
" />
<path d="M73170 74980
L73200 75000
L73170 75030
L73140 75000
L73170 74980
L73170 75030
" />
</g>
<g style="fill:#840000; fill-opacity:0.0; 
stroke:#840000; stroke-width:100; stroke-opacity:1; 
stroke-linecap:round; stroke-linejoin:round;">
<path d="M103760 77700
L103760 77110
" />
<path d="M104290 77700
L104290 77110
" />
<path d="M104290 77670
L104240 77700
L104120 77700
L104070 77670
L104040 77650
L104010 77590
L104010 77420
L104040 77360
L104070 77340
L104120 77310
L104240 77310
L104290 77340
" />
<path d="M104570 77650
L104600 77670
L104570 77700
L104540 77670
L104570 77650
L104570 77700
" />
<path d="M104570 77340
L104600 77360
L104570 77390
L104540 77360
L104570 77340
L104570 77390
" />
<path d="M105610 77700
L105270 77700
" />
<path d="M105440 77700
L105440 77110
L105380 77200
L105330 77250
L105270 77280
" />
<path d="M106280 77080
L105780 77840
" />
<path d="M106790 77700
L106450 77700
" />
<path d="M106620 77700
L106620 77110
L106560 77200
L106510 77250
L106450 77280
" />
<path d="M71250 76490
L71340 76520
L71480 76520
L71530 76490
L71560 76470
L71590 76410
L71590 76350
L71560 76300
L71530 76270
L71480 76240
L71360 76210
L71310 76180
L71280 76160
L71250 76100
L71250 76040
L71280 75990
L71310 75960
L71360 75930
L71510 75930
L71590 75960
" />
<path d="M71840 76520
L71840 76130
" />
<path d="M71840 75930
L71810 75960
L71840 75990
L71870 75960
L71840 75930
L71840 75990
" />
<path d="M72060 76130
L72370 76130
L72060 76520
L72370 76520
" />
<path d="M72830 76490
L72770 76520
L72660 76520
L72600 76490
L72570 76440
L72570 76210
L72600 76160
L72660 76130
L72770 76130
L72830 76160
L72850 76210
L72850 76270
L72570 76330
" />
<path d="M73110 76470
L73140 76490
L73110 76520
L73080 76490
L73110 76470
L73110 76520
" />
<path d="M73110 76160
L73140 76180
L73110 76210
L73080 76180
L73110 76160
L73110 76210
" />
<path d="M73810 76350
L74090 76350
" />
<path d="M73760 76520
L73950 75930
L74150 76520
" />
<path d="M74600 76130
L74600 76520
" />
<path d="M74460 75900
L74320 76330
L74690 76330
" />
</g>
<g style="fill:#840000; fill-opacity:0.0; 
stroke:#840000; stroke-width:120; stroke-opacity:1; 
stroke-linecap:round; stroke-linejoin:round;">
<path d="M104100 76520
L103900 76240
" />
<path d="M103760 76520
L103760 75930
L103990 75930
L104040 75960
L104070 75990
L104100 76040
L104100 76130
L104070 76180
L104040 76210
L103990 76240
L103760 76240
" />
<path d="M104580 76490
L104520 76520
L104410 76520
L104350 76490
L104320 76440
L104320 76210
L104350 76160
L104410 76130
L104520 76130
L104580 76160
L104600 76210
L104600 76270
L104320 76330
" />
<path d="M104800 76130
L104940 76520
L105090 76130
" />
<path d="M105310 76470
L105340 76490
L105310 76520
L105280 76490
L105310 76470
L105310 76520
" />
<path d="M105310 76160
L105340 76180
L105310 76210
L105280 76180
L105310 76160
L105310 76210
" />
</g>
<g style="fill:#840000; fill-opacity:0.0; 
stroke:#840000; stroke-width:100; stroke-opacity:1; 
stroke-linecap:round; stroke-linejoin:round;">
<path d="M71280 77700
L71280 77110
" />
<path d="M71620 77700
L71360 77360
" />
<path d="M71620 77110
L71280 77450
" />
<path d="M71870 77700
L71870 77310
" />
<path d="M71870 77110
L71840 77140
L71870 77170
L71900 77140
L71870 77110
L71870 77170
" />
<path d="M72490 77650
L72460 77670
L72380 77700
L72320 77700
L72230 77670
L72180 77620
L72150 77560
L72120 77450
L72120 77360
L72150 77250
L72180 77200
L72230 77140
L72320 77110
L72380 77110
L72460 77140
L72490 77170
" />
<path d="M72990 77700
L72990 77390
L72970 77340
L72910 77310
L72800 77310
L72740 77340
" />
<path d="M72990 77670
L72940 77700
L72800 77700
L72740 77670
L72710 77620
L72710 77560
L72740 77510
L72800 77480
L72940 77480
L72990 77450
" />
<path d="M73520 77700
L73520 77110
" />
<path d="M73520 77670
L73470 77700
L73350 77700
L73300 77670
L73270 77650
L73240 77590
L73240 77420
L73270 77360
L73300 77340
L73350 77310
L73470 77310
L73520 77340
" />
<path d="M74250 77390
L74450 77390
" />
<path d="M74530 77700
L74250 77700
L74250 77110
L74530 77110
" />
<path d="M74780 77650
L74810 77670
L74780 77700
L74750 77670
L74780 77650
L74780 77700
" />
<path d="M75060 77700
L75060 77110
L75200 77110
L75290 77140
L75340 77200
L75370 77250
L75400 77360
L75400 77450
L75370 77560
L75340 77620
L75290 77670
L75200 77700
L75060 77700
" />
<path d="M75650 77650
L75680 77670
L75650 77700
L75620 77670
L75650 77650
L75650 77700
" />
<path d="M75900 77530
L76180 77530
" />
<path d="M75850 77700
L76040 77110
L76240 77700
" />
<path d="M76440 77650
L76470 77670
L76440 77700
L76410 77670
L76440 77650
L76440 77700
" />
<path d="M77850 77670
L77790 77700
L77680 77700
L77620 77670
L77590 77620
L77590 77390
L77620 77340
L77680 77310
L77790 77310
L77850 77340
L77870 77390
L77870 77450
L77590 77510
" />
<path d="M78360 77670
L78300 77700
L78190 77700
L78130 77670
L78100 77620
L78100 77390
L78130 77340
L78190 77310
L78300 77310
L78360 77340
L78380 77390
L78380 77450
L78100 77510
" />
<path d="M78610 77670
L78670 77700
L78780 77700
L78840 77670
L78870 77620
L78870 77590
L78840 77530
L78780 77510
L78700 77510
L78640 77480
L78610 77420
L78610 77390
L78640 77340
L78700 77310
L78780 77310
L78840 77340
" />
<path d="M79370 77670
L79320 77700
L79200 77700
L79150 77670
L79120 77650
L79090 77590
L79090 77420
L79120 77360
L79150 77340
L79200 77310
L79320 77310
L79370 77340
" />
<path d="M79630 77700
L79630 77110
" />
<path d="M79880 77700
L79880 77390
L79860 77340
L79800 77310
L79710 77310
L79660 77340
L79630 77360
" />
<path d="M80390 77670
L80330 77700
L80220 77700
L80160 77670
L80130 77620
L80130 77390
L80160 77340
L80220 77310
L80330 77310
L80390 77340
L80410 77390
L80410 77450
L80130 77510
" />
<path d="M80670 77700
L80670 77310
" />
<path d="M80670 77360
L80700 77340
L80750 77310
L80840 77310
L80900 77340
L80920 77390
L80920 77700
" />
<path d="M80920 77390
L80950 77340
L81010 77310
L81090 77310
L81150 77340
L81180 77390
L81180 77700
" />
<path d="M81710 77700
L81710 77390
L81690 77340
L81630 77310
L81520 77310
L81460 77340
" />
<path d="M81710 77670
L81660 77700
L81520 77700
L81460 77670
L81430 77620
L81430 77560
L81460 77510
L81520 77480
L81660 77480
L81710 77450
" />
<path d="M82610 77930
L82580 77900
L82520 77810
L82500 77760
L82470 77670
L82440 77530
L82440 77420
L82470 77280
L82500 77200
L82520 77140
L82580 77060
L82610 77030
" />
<path d="M82800 77170
L82830 77140
L82890 77110
L83030 77110
L83080 77140
L83110 77170
L83140 77220
L83140 77280
L83110 77360
L82770 77700
L83140 77700
" />
<path d="M83500 77110
L83560 77110
L83620 77140
L83640 77170
L83670 77220
L83700 77340
L83700 77480
L83670 77590
L83640 77650
L83620 77670
L83560 77700
L83500 77700
L83450 77670
L83420 77650
L83390 77590
L83360 77480
L83360 77340
L83390 77220
L83420 77170
L83450 77140
L83500 77110
" />
<path d="M84260 77700
L83920 77700
" />
<path d="M84090 77700
L84090 77110
L84030 77200
L83980 77250
L83920 77280
" />
<path d="M84450 77110
L84820 77110
L84620 77340
L84710 77340
L84760 77360
L84790 77390
L84820 77450
L84820 77590
L84790 77650
L84760 77670
L84710 77700
L84540 77700
L84480 77670
L84450 77650
" />
<path d="M85070 77480
L85520 77480
" />
<path d="M85800 77700
L85800 77310
" />
<path d="M85800 77360
L85830 77340
L85880 77310
L85970 77310
L86030 77340
L86050 77390
L86050 77700
" />
<path d="M86050 77390
L86080 77340
L86140 77310
L86220 77310
L86280 77340
L86310 77390
L86310 77700
" />
<path d="M86840 77700
L86840 77390
L86820 77340
L86760 77310
L86650 77310
L86590 77340
" />
<path d="M86840 77670
L86790 77700
L86650 77700
L86590 77670
L86560 77620
L86560 77560
L86590 77510
L86650 77480
L86790 77480
L86840 77450
" />
<path d="M87120 77700
L87120 77310
" />
<path d="M87120 77420
L87150 77360
L87180 77340
L87230 77310
L87290 77310
" />
<path d="M87490 77480
L87940 77480
" />
<path d="M88530 77700
L88190 77700
" />
<path d="M88360 77700
L88360 77110
L88300 77200
L88250 77250
L88190 77280
" />
<path d="M88720 77110
L89090 77110
L88890 77340
L88980 77340
L89030 77360
L89060 77390
L89090 77450
L89090 77590
L89060 77650
L89030 77670
L88980 77700
L88810 77700
L88750 77670
L88720 77650
" />
<path d="M89280 77930
L89310 77900
L89370 77810
L89400 77760
L89420 77670
L89450 77530
L89450 77420
L89420 77280
L89400 77200
L89370 77140
L89310 77060
L89280 77030
" />
<path d="M89730 77480
L90180 77480
" />
<path d="M90380 77310
L90600 77310
" />
<path d="M90460 77110
L90460 77620
L90490 77670
L90540 77700
L90600 77700
" />
<path d="M91030 77670
L90970 77700
L90860 77700
L90800 77670
L90770 77620
L90770 77390
L90800 77340
L90860 77310
L90970 77310
L91030 77340
L91050 77390
L91050 77450
L90770 77510
" />
<path d="M91280 77670
L91340 77700
L91450 77700
L91510 77670
L91540 77620
L91540 77590
L91510 77530
L91450 77510
L91370 77510
L91310 77480
L91280 77420
L91280 77390
L91310 77340
L91370 77310
L91450 77310
L91510 77340
" />
<path d="M91710 77310
L91930 77310
" />
<path d="M91790 77110
L91790 77620
L91820 77670
L91870 77700
L91930 77700
" />
<path d="M92130 77700
L92130 77310
" />
<path d="M92130 77110
L92100 77140
L92130 77170
L92160 77140
L92130 77110
L92130 77170
" />
<path d="M92410 77310
L92410 77700
" />
<path d="M92410 77360
L92440 77340
L92490 77310
L92580 77310
L92640 77340
L92660 77390
L92660 77700
" />
<path d="M93190 77310
L93190 77790
L93170 77840
L93140 77870
L93080 77900
L93000 77900
L92940 77870
" />
<path d="M93190 77670
L93140 77700
L93020 77700
L92970 77670
L92940 77650
L92910 77590
L92910 77420
L92940 77360
L92970 77340
L93020 77310
L93140 77310
L93190 77340
" />
<path d="M79540 76520
L79540 75930
L79680 75930
L79770 75960
L79820 76020
L79850 76070
L79880 76180
L79880 76270
L79850 76380
L79820 76440
L79770 76490
L79680 76520
L79540 76520
" />
<path d="M80380 76520
L80380 76210
L80360 76160
L80300 76130
L80190 76130
L80130 76160
" />
<path d="M80380 76490
L80330 76520
L80190 76520
L80130 76490
L80100 76440
L80100 76380
L80130 76330
L80190 76300
L80330 76300
L80380 76270
" />
<path d="M80580 76130
L80800 76130
" />
<path d="M80660 75930
L80660 76440
L80690 76490
L80740 76520
L80800 76520
" />
<path d="M81230 76490
L81170 76520
L81060 76520
L81000 76490
L80970 76440
L80970 76210
L81000 76160
L81060 76130
L81170 76130
L81230 76160
L81250 76210
L81250 76270
L80970 76330
" />
<path d="M81510 76470
L81540 76490
L81510 76520
L81480 76490
L81510 76470
L81510 76520
" />
<path d="M81510 76160
L81540 76180
L81510 76210
L81480 76180
L81510 76160
L81510 76210
" />
<path d="M82550 76520
L82210 76520
" />
<path d="M82380 76520
L82380 75930
L82320 76020
L82270 76070
L82210 76100
" />
<path d="M82910 75930
L82970 75930
L83030 75960
L83050 75990
L83080 76040
L83110 76160
L83110 76300
L83080 76410
L83050 76470
L83030 76490
L82970 76520
L82910 76520
L82860 76490
L82830 76470
L82800 76410
L82770 76300
L82770 76160
L82800 76040
L82830 75990
L82860 75960
L82910 75930
" />
<path d="M83780 76490
L83840 76520
L83950 76520
L84010 76490
L84040 76440
L84040 76410
L84010 76350
L83950 76330
L83870 76330
L83810 76300
L83780 76240
L83780 76210
L83810 76160
L83870 76130
L83950 76130
L84010 76160
" />
<path d="M84520 76490
L84460 76520
L84350 76520
L84290 76490
L84260 76440
L84260 76210
L84290 76160
L84350 76130
L84460 76130
L84520 76160
L84540 76210
L84540 76270
L84260 76330
" />
<path d="M84800 76130
L84800 76720
" />
<path d="M84800 76160
L84860 76130
L84970 76130
L85030 76160
L85050 76180
L85080 76240
L85080 76410
L85050 76470
L85030 76490
L84970 76520
L84860 76520
L84800 76490
" />
<path d="M85750 75990
L85780 75960
L85840 75930
L85980 75930
L86030 75960
L86060 75990
L86090 76040
L86090 76100
L86060 76180
L85720 76520
L86090 76520
" />
<path d="M86450 75930
L86510 75930
L86570 75960
L86590 75990
L86620 76040
L86650 76160
L86650 76300
L86620 76410
L86590 76470
L86570 76490
L86510 76520
L86450 76520
L86400 76490
L86370 76470
L86340 76410
L86310 76300
L86310 76160
L86340 76040
L86370 75990
L86400 75960
L86450 75930
" />
<path d="M87210 76520
L86870 76520
" />
<path d="M87040 76520
L87040 75930
L86980 76020
L86930 76070
L86870 76100
" />
<path d="M87430 75990
L87460 75960
L87520 75930
L87660 75930
L87710 75960
L87740 75990
L87770 76040
L87770 76100
L87740 76180
L87400 76520
L87770 76520
" />
<path d="M70550 72130
L112280 72130
" />
<path d="M70550 72130
L70550 78030
" />
<path d="M70550 72130
L112280 72130
" />
</g>
<g style="fill:#840000; fill-opacity:0.0; 
stroke:#840000; stroke-width:60; stroke-opacity:1; 
stroke-linecap:round; stroke-linejoin:round;">
</g>
<g style="fill:#008400; fill-opacity:0.0; 
stroke:#008400; stroke-width:60; stroke-opacity:1; 
stroke-linecap:round; stroke-linejoin:round;">
<path d="M68000 44500
L57500 44500
" />
<path d="M57500 44500
L57500 43500
" />
<path d="M57500 59000
L57500 64000
" />
</g>
<g style="fill:#008400; fill-opacity:0.0; 
stroke:#008400; stroke-width:0; stroke-opacity:1; 
stroke-linecap:round; stroke-linejoin:round;">
</g>
<g style="fill:#008400; fill-opacity:1.0; 
stroke:#008400; stroke-width:100; stroke-opacity:1; 
stroke-linecap:round; stroke-linejoin:round;">
<circle cx="60500" cy="57000" r="200" /> 
</g>
<g style="fill:#008400; fill-opacity:1.0; 
stroke:#008400; stroke-width:60; stroke-opacity:1; 
stroke-linecap:round; stroke-linejoin:round;">
<path d="M60500 58000
L60500 54000
" />
</g>
<g style="fill:#008400; fill-opacity:1.0; 
stroke:#008400; stroke-width:0; stroke-opacity:1; 
stroke-linecap:round; stroke-linejoin:round;">
</g>
<g style="fill:#008400; fill-opacity:1.0; 
stroke:#008400; stroke-width:100; stroke-opacity:1; 
stroke-linecap:round; stroke-linejoin:round;">
<circle cx="57500" cy="52000" r="200" /> 
</g>
<g style="fill:#008400; fill-opacity:1.0; 
stroke:#008400; stroke-width:60; stroke-opacity:1; 
stroke-linecap:round; stroke-linejoin:round;">
<path d="M57500 55000
L57500 49500
" />
<path d="M60500 50000
L60500 48500
" />
</g>
<g style="fill:#008400; fill-opacity:1.0; 
stroke:#008400; stroke-width:0; stroke-opacity:1; 
stroke-linecap:round; stroke-linejoin:round;">
</g>
<g style="fill:#008400; fill-opacity:1.0; 
stroke:#008400; stroke-width:100; stroke-opacity:1; 
stroke-linecap:round; stroke-linejoin:round;">
<circle cx="65500" cy="48500" r="200" /> 
</g>
<g style="fill:#008400; fill-opacity:1.0; 
stroke:#008400; stroke-width:0; stroke-opacity:1; 
stroke-linecap:round; stroke-linejoin:round;">
</g>
<g style="fill:#008400; fill-opacity:1.0; 
stroke:#008400; stroke-width:100; stroke-opacity:1; 
stroke-linecap:round; stroke-linejoin:round;">
<circle cx="65500" cy="44500" r="200" /> 
</g>
<g style="fill:#008400; fill-opacity:1.0; 
stroke:#008400; stroke-width:0; stroke-opacity:1; 
stroke-linecap:round; stroke-linejoin:round;">
</g>
<g style="fill:#008400; fill-opacity:1.0; 
stroke:#008400; stroke-width:100; stroke-opacity:1; 
stroke-linecap:round; stroke-linejoin:round;">
<circle cx="60500" cy="44500" r="200" /> 
</g>
<g style="fill:#008400; fill-opacity:1.0; 
stroke:#008400; stroke-width:0; stroke-opacity:1; 
stroke-linecap:round; stroke-linejoin:round;">
</g>
<g style="fill:#008400; fill-opacity:1.0; 
stroke:#008400; stroke-width:100; stroke-opacity:1; 
stroke-linecap:round; stroke-linejoin:round;">
<circle cx="57500" cy="44500" r="200" /> 
</g>
<g style="fill:#008400; fill-opacity:1.0; 
stroke:#008400; stroke-width:0; stroke-opacity:1; 
stroke-linecap:round; stroke-linejoin:round;">
</g>
<g style="fill:#008400; fill-opacity:1.0; 
stroke:#008400; stroke-width:100; stroke-opacity:1; 
stroke-linecap:round; stroke-linejoin:round;">
<circle cx="63000" cy="44500" r="200" /> 
</g>
<g style="fill:#008400; fill-opacity:1.0; 
stroke:#008400; stroke-width:60; stroke-opacity:1; 
stroke-linecap:round; stroke-linejoin:round;">
<path d="M60500 48500
L68000 48500
" />
</g>
<g style="fill:#008400; fill-opacity:1.0; 
stroke:#008400; stroke-width:0; stroke-opacity:1; 
stroke-linecap:round; stroke-linejoin:round;">
</g>
<g style="fill:#008400; fill-opacity:1.0; 
stroke:#008400; stroke-width:100; stroke-opacity:1; 
stroke-linecap:round; stroke-linejoin:round;">
<circle cx="63000" cy="48500" r="200" /> 
</g>
<g style="fill:#008400; fill-opacity:1.0; 
stroke:#008400; stroke-width:60; stroke-opacity:1; 
stroke-linecap:round; stroke-linejoin:round;">
<path d="M60500 63000
L57500 63000
" />
</g>
<g style="fill:#008400; fill-opacity:1.0; 
stroke:#008400; stroke-width:0; stroke-opacity:1; 
stroke-linecap:round; stroke-linejoin:round;">
</g>
<g style="fill:#008400; fill-opacity:1.0; 
stroke:#008400; stroke-width:100; stroke-opacity:1; 
stroke-linecap:round; stroke-linejoin:round;">
<circle cx="57500" cy="63000" r="200" /> 
</g>
<g style="fill:#008400; fill-opacity:1.0; 
stroke:#008400; stroke-width:0; stroke-opacity:1; 
stroke-linecap:round; stroke-linejoin:round;">
</g>
<g style="fill:#840000; fill-opacity:0.0; 
stroke:#840000; stroke-width:60; stroke-opacity:1; 
stroke-linecap:round; stroke-linejoin:round;">
<polyline fill="none;"
points="57000,64000
57500,64500
58000,64000
57000,64000
" /> 
</g>
<g style="fill:#840000; fill-opacity:0.0; 
stroke:#840000; stroke-width:0; stroke-opacity:1; 
stroke-linecap:round; stroke-linejoin:round;">
</g>
<g style="fill:#840000; fill-opacity:0.0; 
stroke:#840000; stroke-width:60; stroke-opacity:1; 
stroke-linecap:round; stroke-linejoin:round;">
<circle cx="57500" cy="42900" r="200" /> 
<polyline fill="none;"
points="57500,43500
57500,43100
57500,43100
" /> 
</g>
<g style="fill:#008484; fill-opacity:0.0; 
stroke:#008484; stroke-width:50; stroke-opacity:1; 
stroke-linecap:round; stroke-linejoin:round;">
<path d="M56880 42500
L57110 42500
" />
<path d="M57000 42620
L57000 42390
" />
<path d="M57350 42460
L57390 42470
L57410 42490
L57420 42520
L57420 42560
L57410 42590
L57390 42600
L57370 42620
L57250 42620
L57250 42320
L57350 42320
L57380 42330
L57390 42340
L57410 42370
L57410 42400
L57390 42430
L57380 42440
L57350 42460
L57250 42460
" />
<path d="M57540 42530
L57680 42530
" />
<path d="M57510 42620
L57610 42320
L57710 42620
" />
<path d="M57770 42320
L57940 42320
" />
<path d="M57850 42620
L57850 42320
" />
<path d="M58000 42320
L58170 42320
" />
<path d="M58080 42620
L58080 42320
" />
</g>
<g style="fill:#008484; fill-opacity:0.0; 
stroke:#008484; stroke-width:0; stroke-opacity:1; 
stroke-linecap:round; stroke-linejoin:round;">
</g>
<g style="fill:#840000; fill-opacity:0.0; 
stroke:#840000; stroke-width:120; stroke-opacity:1; 
stroke-linecap:round; stroke-linejoin:round;">
<rect x="60100" y="59000" width="800" height="3000" rx="0" />
</g>
<g style="fill:#840000; fill-opacity:0.0; 
stroke:#840000; stroke-width:60; stroke-opacity:1; 
stroke-linecap:round; stroke-linejoin:round;">
<path d="M60500 59000
L60500 58000
" />
</g>
<g style="fill:#008484; fill-opacity:0.0; 
stroke:#008484; stroke-width:60; stroke-opacity:1; 
stroke-linecap:round; stroke-linejoin:round;">
<path d="M60500 62000
L60500 63000
" />
</g>
<g style="fill:#008484; fill-opacity:0.0; 
stroke:#008484; stroke-width:60; stroke-opacity:1; 
stroke-linecap:round; stroke-linejoin:round;">
<path d="M61500 60590
L61260 60750
" />
<path d="M61500 60870
L61000 60870
L61000 60680
L61020 60630
L61040 60610
L61090 60590
L61160 60590
L61210 60610
L61230 60630
L61260 60680
L61260 60870
" />
<path d="M61040 60390
L61020 60370
L61000 60320
L61000 60200
L61020 60160
L61040 60130
L61090 60110
L61140 60110
L61210 60130
L61500 60420
L61500 60110
" />
<path d="M60200 60770
L60200 60860
L60220 60910
L60240 60930
L60320 60980
L60410 61000
L60600 61000
L60650 60980
L60670 60960
L60700 60910
L60700 60810
L60670 60770
L60650 60740
L60600 60720
L60480 60720
L60430 60740
L60410 60770
L60390 60810
L60390 60910
L60410 60960
L60430 60980
L60480 61000
" />
<path d="M60650 60500
L60670 60480
L60700 60500
L60670 60520
L60650 60500
L60700 60500
" />
<path d="M60240 60280
L60220 60260
L60200 60210
L60200 60090
L60220 60050
L60240 60020
L60290 60000
L60340 60000
L60410 60020
L60700 60310
L60700 60000
" />
</g>
<g style="fill:#008484; fill-opacity:0.0; 
stroke:#008484; stroke-width:0; stroke-opacity:1; 
stroke-linecap:round; stroke-linejoin:round;">
</g>
<g style="fill:#840000; fill-opacity:0.0; 
stroke:#840000; stroke-width:120; stroke-opacity:1; 
stroke-linecap:round; stroke-linejoin:round;">
<rect x="57100" y="45500" width="800" height="3000" rx="0" />
</g>
<g style="fill:#840000; fill-opacity:0.0; 
stroke:#840000; stroke-width:60; stroke-opacity:1; 
stroke-linecap:round; stroke-linejoin:round;">
<path d="M57500 45500
L57500 44500
" />
</g>
<g style="fill:#008484; fill-opacity:0.0; 
stroke:#008484; stroke-width:60; stroke-opacity:1; 
stroke-linecap:round; stroke-linejoin:round;">
<path d="M57500 48500
L57500 49500
" />
</g>
<g style="fill:#008484; fill-opacity:0.0; 
stroke:#008484; stroke-width:60; stroke-opacity:1; 
stroke-linecap:round; stroke-linejoin:round;">
<path d="M58500 47090
L58260 47250
" />
<path d="M58500 47370
L58000 47370
L58000 47180
L58020 47130
L58040 47110
L58090 47090
L58160 47090
L58210 47110
L58230 47130
L58260 47180
L58260 47370
" />
<path d="M58500 46610
L58500 46890
" />
<path d="M58500 46750
L58000 46750
L58070 46800
L58120 46850
L58140 46890
" />
<path d="M57700 47540
L57700 47820
" />
<path d="M57700 47680
L57200 47680
L57270 47730
L57320 47780
L57340 47820
" />
<path d="M57200 47230
L57200 47180
L57220 47130
L57240 47110
L57290 47080
L57390 47060
L57510 47060
L57600 47080
L57650 47110
L57670 47130
L57700 47180
L57700 47230
L57670 47270
L57650 47300
L57600 47320
L57510 47340
L57390 47340
L57290 47320
L57240 47300
L57220 47270
L57200 47230
" />
<path d="M57200 46750
L57200 46700
L57220 46650
L57240 46630
L57290 46600
L57390 46580
L57510 46580
L57600 46600
L57650 46630
L57670 46650
L57700 46700
L57700 46750
L57670 46790
L57650 46820
L57600 46840
L57510 46860
L57390 46860
L57290 46840
L57240 46820
L57220 46790
L57200 46750
" />
<path d="M57700 46360
L57200 46360
" />
<path d="M57510 46310
L57700 46170
" />
<path d="M57360 46170
L57550 46360
" />
</g>
<g style="fill:#008484; fill-opacity:0.0; 
stroke:#008484; stroke-width:0; stroke-opacity:1; 
stroke-linecap:round; stroke-linejoin:round;">
</g>
<g style="fill:#840000; fill-opacity:0.0; 
stroke:#840000; stroke-width:100; stroke-opacity:1; 
stroke-linecap:round; stroke-linejoin:round;">
<circle cx="58000" cy="57000" r="1110" /> 
</g>
<g style="fill:#840000; fill-opacity:0.0; 
stroke:#840000; stroke-width:60; stroke-opacity:1; 
stroke-linecap:round; stroke-linejoin:round;">
<polyline fill="none;"
points="58500,57000
57500,56000
" /> 
</g>
<g style="fill:#840000; fill-opacity:0.0; 
stroke:#840000; stroke-width:100; stroke-opacity:1; 
stroke-linecap:round; stroke-linejoin:round;">
<polyline fill="none;"
points="58500,56250
58500,57750
58500,57750
" /> 
</g>
<g style="fill:#840000; fill-opacity:0.0; 
stroke:#840000; stroke-width:60; stroke-opacity:1; 
stroke-linecap:round; stroke-linejoin:round;">
<polyline fill="none;"
points="58000,57500
58500,57000
58500,57000
" /> 
<polyline fill="none;"
points="57600,57900
57500,58000
57500,58000
" /> 
</g>
<g style="fill:#840000; fill-opacity:1.0; 
stroke:#840000; stroke-width:60; stroke-opacity:1; 
stroke-linecap:round; stroke-linejoin:round;">
<polyline style="fill-rule:evenodd;"
points="57600,57900
57800,57300
58200,57700
57600,57900
57600,57900
" /> 
<path d="M57500 58000
L57500 59000
" />
</g>
<g style="fill:#008484; fill-opacity:0.0; 
stroke:#008484; stroke-width:60; stroke-opacity:1; 
stroke-linecap:round; stroke-linejoin:round;">
<path d="M57170 58580
L57170 58450
" />
<path d="M57380 58390
L57380 58580
L56980 58580
L56980 58390
" />
</g>
<g style="fill:#840000; fill-opacity:0.0; 
stroke:#840000; stroke-width:60; stroke-opacity:1; 
stroke-linecap:round; stroke-linejoin:round;">
<path d="M57980 58390
L57980 58610
" />
<path d="M57980 58500
L57580 58500
L57640 58540
L57680 58580
L57700 58610
" />
<path d="M58500 57000
L60500 57000
" />
</g>
<g style="fill:#008484; fill-opacity:0.0; 
stroke:#008484; stroke-width:60; stroke-opacity:1; 
stroke-linecap:round; stroke-linejoin:round;">
<path d="M59530 56670
L59590 56690
L59600 56710
L59620 56750
L59620 56800
L59600 56840
L59590 56860
L59550 56880
L59400 56880
L59400 56480
L59530 56480
L59570 56500
L59590 56520
L59600 56560
L59600 56600
L59590 56630
L59570 56650
L59530 56670
L59400 56670
" />
</g>
<g style="fill:#840000; fill-opacity:0.0; 
stroke:#840000; stroke-width:60; stroke-opacity:1; 
stroke-linecap:round; stroke-linejoin:round;">
<path d="M59390 57120
L59410 57100
L59440 57080
L59540 57080
L59580 57100
L59600 57120
L59610 57160
L59610 57200
L59600 57250
L59370 57480
L59610 57480
" />
<path d="M57500 56000
L57500 55000
" />
</g>
<g style="fill:#008484; fill-opacity:0.0; 
stroke:#008484; stroke-width:60; stroke-opacity:1; 
stroke-linecap:round; stroke-linejoin:round;">
<path d="M57340 55380
L57360 55400
L57380 55450
L57380 55490
L57360 55550
L57320 55590
L57290 55600
L57210 55620
L57150 55620
L57080 55600
L57040 55590
L57000 55550
L56980 55490
L56980 55450
L57000 55400
L57020 55380
" />
</g>
<g style="fill:#840000; fill-opacity:0.0; 
stroke:#840000; stroke-width:60; stroke-opacity:1; 
stroke-linecap:round; stroke-linejoin:round;">
<path d="M57580 55630
L57580 55390
L57730 55520
L57730 55460
L57750 55420
L57770 55400
L57810 55390
L57900 55390
L57940 55400
L57960 55420
L57980 55460
L57980 55580
L57960 55610
L57940 55630
" />
</g>
<g style="fill:#008484; fill-opacity:0.0; 
stroke:#008484; stroke-width:60; stroke-opacity:1; 
stroke-linecap:round; stroke-linejoin:round;">
<path d="M58950 58740
L58900 58720
L58860 58670
L58790 58600
L58740 58580
L58690 58580
" />
<path d="M58710 58700
L58670 58670
L58620 58620
L58600 58530
L58600 58360
L58620 58270
L58670 58220
L58710 58200
L58810 58200
L58860 58220
L58900 58270
L58930 58360
L58930 58530
L58900 58620
L58860 58670
L58810 58700
L58710 58700
" />
<path d="M59400 58700
L59120 58700
" />
<path d="M59260 58700
L59260 58200
L59210 58270
L59160 58320
L59120 58340
" />
<path d="M58790 55430
L58860 55460
L58880 55480
L58900 55530
L58900 55600
L58880 55650
L58860 55670
L58810 55700
L58620 55700
L58620 55200
L58790 55200
L58830 55220
L58860 55240
L58880 55290
L58880 55340
L58860 55390
L58830 55410
L58790 55430
L58620 55430
" />
<path d="M59400 55650
L59380 55670
L59310 55700
L59260 55700
L59190 55670
L59140 55620
L59120 55580
L59100 55480
L59100 55410
L59120 55320
L59140 55270
L59190 55220
L59260 55200
L59310 55200
L59380 55220
L59400 55240
" />
<path d="M59690 55410
L59640 55390
L59620 55360
L59600 55320
L59600 55290
L59620 55240
L59640 55220
L59690 55200
L59790 55200
L59830 55220
L59860 55240
L59880 55290
L59880 55320
L59860 55360
L59830 55390
L59790 55410
L59690 55410
L59640 55430
L59620 55460
L59600 55510
L59600 55600
L59620 55650
L59640 55670
L59690 55700
L59790 55700
L59830 55670
L59860 55650
L59880 55600
L59880 55510
L59860 55460
L59830 55430
L59790 55410
" />
<path d="M60310 55360
L60310 55700
" />
<path d="M60190 55170
L60080 55530
L60380 55530
" />
<path d="M60530 55200
L60860 55200
L60650 55700
" />
<path d="M61230 55430
L61300 55460
L61320 55480
L61340 55530
L61340 55600
L61320 55650
L61300 55670
L61250 55700
L61060 55700
L61060 55200
L61230 55200
L61270 55220
L61300 55240
L61320 55290
L61320 55340
L61300 55390
L61270 55410
L61230 55430
L61060 55430
" />
</g>
<g style="fill:#008484; fill-opacity:0.0; 
stroke:#008484; stroke-width:0; stroke-opacity:1; 
stroke-linecap:round; stroke-linejoin:round;">
</g>
<g style="fill:#840000; fill-opacity:0.0; 
stroke:#840000; stroke-width:80; stroke-opacity:1; 
stroke-linecap:round; stroke-linejoin:round;">
<polyline fill="none;"
points="59000,53000
59000,51000
" /> 
</g>
<g style="fill:#840000; fill-opacity:0.0; 
stroke:#840000; stroke-width:100; stroke-opacity:1; 
stroke-linecap:round; stroke-linejoin:round;">
<polyline fill="none;"
points="59500,53500
59500,50500
" /> 
</g>
<g style="fill:#840000; fill-opacity:0.0; 
stroke:#840000; stroke-width:60; stroke-opacity:1; 
stroke-linecap:round; stroke-linejoin:round;">
<polyline fill="none;"
points="60500,53000
59500,53000
" /> 
<polyline fill="none;"
points="60500,51000
59500,51000
" /> 
</g>
<g style="fill:#840000; fill-opacity:0.0; 
stroke:#840000; stroke-width:80; stroke-opacity:1; 
stroke-linecap:round; stroke-linejoin:round;">
<polyline fill="none;"
points="60500,53000
60500,52000
60000,52000
" /> 
<polyline fill="none;"
points="60000,51700
60000,52300
59500,52000
60000,51700
60000,51700
" /> 
</g>
<g style="fill:#840000; fill-opacity:0.0; 
stroke:#840000; stroke-width:60; stroke-opacity:1; 
stroke-linecap:round; stroke-linejoin:round;">
<path d="M60500 51000
L60500 50000
" />
</g>
<g style="fill:#008484; fill-opacity:0.0; 
stroke:#008484; stroke-width:60; stroke-opacity:1; 
stroke-linecap:round; stroke-linejoin:round;">
<path d="M60380 50600
L59980 50600
L59980 50510
L60000 50450
L60040 50410
L60080 50400
L60150 50380
L60210 50380
L60290 50400
L60320 50410
L60360 50450
L60380 50510
L60380 50600
" />
<path d="M59000 52000
L57500 52000
" />
</g>
<g style="fill:#008484; fill-opacity:0.0; 
stroke:#008484; stroke-width:60; stroke-opacity:1; 
stroke-linecap:round; stroke-linejoin:round;">
<path d="M58350 51500
L58320 51480
L58260 51480
L58200 51500
L58160 51540
L58150 51580
L58130 51650
L58130 51710
L58150 51790
L58160 51820
L58200 51860
L58260 51880
L58300 51880
L58350 51860
L58370 51840
L58370 51710
L58300 51710
" />
<path d="M60500 53000
L60500 54000
" />
</g>
<g style="fill:#008484; fill-opacity:0.0; 
stroke:#008484; stroke-width:60; stroke-opacity:1; 
stroke-linecap:round; stroke-linejoin:round;">
<path d="M60360 53610
L60380 53560
L60380 53460
L60360 53420
L60340 53400
L60300 53390
L60270 53390
L60230 53400
L60210 53420
L60190 53460
L60170 53540
L60150 53580
L60130 53590
L60100 53610
L60060 53610
L60020 53590
L60000 53580
L59980 53540
L59980 53440
L60000 53390
" />
<path d="M58940 50600
L58890 50570
L58830 50510
L58740 50430
L58690 50400
L58630 50400
" />
<path d="M58660 50540
L58600 50510
L58540 50460
L58510 50340
L58510 50140
L58540 50030
L58600 49970
L58660 49940
L58770 49940
L58830 49970
L58890 50030
L58910 50140
L58910 50340
L58890 50460
L58830 50510
L58770 50540
L58660 50540
" />
<path d="M59140 50000
L59170 49970
L59230 49940
L59370 49940
L59430 49970
L59460 50000
L59490 50060
L59490 50110
L59460 50200
L59120 50540
L59490 50540
" />
<path d="M53960 53740
L53960 53340
" />
<path d="M53960 53140
L53930 53170
L53960 53200
L53990 53170
L53960 53140
L53960 53200
" />
<path d="M54250 53740
L54250 53340
" />
<path d="M54250 53460
L54280 53400
L54310 53370
L54370 53340
L54420 53340
" />
<path d="M54710 53740
L54650 53710
L54620 53660
L54620 53140
" />
<path d="M54930 53740
L54930 53340
" />
<path d="M54930 53400
L54960 53370
L55020 53340
L55100 53340
L55160 53370
L55190 53430
L55190 53740
" />
<path d="M55190 53430
L55220 53370
L55280 53340
L55360 53340
L55420 53370
L55450 53430
L55450 53740
" />
<path d="M55820 53740
L55760 53710
L55730 53660
L55730 53140
" />
<path d="M56010 53200
L56040 53170
L56100 53140
L56240 53140
L56300 53170
L56330 53200
L56360 53260
L56360 53310
L56330 53400
L55990 53740
L56360 53740
" />
<path d="M56700 53400
L56640 53370
L56610 53340
L56580 53280
L56580 53260
L56610 53200
L56640 53170
L56700 53140
L56810 53140
L56870 53170
L56900 53200
L56930 53260
L56930 53280
L56900 53340
L56870 53370
L56810 53400
L56700 53400
L56640 53430
L56610 53460
L56580 53510
L56580 53630
L56610 53680
L56640 53710
L56700 53740
L56810 53740
L56870 53710
L56900 53680
L56930 53630
L56930 53510
L56900 53460
L56870 53430
L56810 53400
" />
<path d="M57300 53140
L57350 53140
L57410 53170
L57440 53200
L57470 53260
L57500 53370
L57500 53510
L57470 53630
L57440 53680
L57410 53710
L57350 53740
L57300 53740
L57240 53710
L57210 53680
L57180 53630
L57150 53510
L57150 53370
L57180 53260
L57210 53200
L57240 53170
L57300 53140
" />
<path d="M57700 53140
L58070 53140
L57870 53370
L57950 53370
L58010 53400
L58040 53430
L58070 53480
L58070 53630
L58040 53680
L58010 53710
L57950 53740
L57780 53740
L57720 53710
L57700 53680
" />
<path d="M58320 53340
L58320 53940
" />
<path d="M58320 53370
L58380 53340
L58490 53340
L58550 53370
L58580 53400
L58610 53460
L58610 53630
L58580 53680
L58550 53710
L58490 53740
L58380 53740
L58320 53710
" />
<path d="M58860 53740
L58860 53140
" />
<path d="M58860 53370
L58920 53340
L59030 53340
L59090 53370
L59120 53400
L59150 53460
L59150 53630
L59120 53680
L59090 53710
L59030 53740
L58920 53740
L58860 53710
" />
<path d="M59320 53340
L59550 53340
" />
<path d="M59400 53740
L59400 53230
L59430 53170
L59490 53140
L59550 53140
" />
</g>
<g style="fill:#008484; fill-opacity:0.0; 
stroke:#008484; stroke-width:0; stroke-opacity:1; 
stroke-linecap:round; stroke-linejoin:round;">
</g>
<g style="fill:#840000; fill-opacity:0.0; 
stroke:#840000; stroke-width:60; stroke-opacity:1; 
stroke-linecap:round; stroke-linejoin:round;">
<polyline fill="none;"
points="68500,47000
67500,47000
" /> 
</g>
<g style="fill:#840000; fill-opacity:1.0; 
stroke:#840000; stroke-width:60; stroke-opacity:1; 
stroke-linecap:round; stroke-linejoin:round;">
<polyline style="fill-rule:evenodd;"
points="68500,46000
68000,47000
67500,46000
" /> 
</g>
<g style="fill:#840000; fill-opacity:0.0; 
stroke:#840000; stroke-width:60; stroke-opacity:1; 
stroke-linecap:round; stroke-linejoin:round;">
<polyline fill="none;"
points="67600,47150
67200,47600
67450,47550
" /> 
<polyline fill="none;"
points="67750,47300
67350,47750
67600,47700
" /> 
<path d="M68000 46000
L68000 44500
" />
<path d="M67880 45140
L67880 45360
" />
<path d="M67880 45250
L67480 45250
L67540 45290
L67580 45330
L67600 45360
" />
<path d="M68000 47000
L68000 48500
" />
<path d="M67520 47860
L67500 47840
L67480 47810
L67480 47710
L67500 47670
L67520 47650
L67560 47640
L67600 47640
L67650 47650
L67880 47880
L67880 47640
" />
</g>
<g style="fill:#008484; fill-opacity:0.0; 
stroke:#008484; stroke-width:60; stroke-opacity:1; 
stroke-linecap:round; stroke-linejoin:round;">
<path d="M69260 46870
L68760 46870
L68760 46750
L68780 46680
L68830 46630
L68880 46610
L68970 46590
L69040 46590
L69140 46610
L69180 46630
L69230 46680
L69260 46750
L69260 46870
" />
<path d="M68920 46160
L69260 46160
" />
<path d="M68730 46280
L69090 46390
L69090 46090
" />
<path d="M67260 46350
L67020 46510
" />
<path d="M67260 46630
L66760 46630
L66760 46440
L66780 46390
L66800 46370
L66850 46350
L66920 46350
L66970 46370
L66990 46390
L67020 46440
L67020 46630
" />
</g>
<g style="fill:#008484; fill-opacity:0.0; 
stroke:#008484; stroke-width:0; stroke-opacity:1; 
stroke-linecap:round; stroke-linejoin:round;">
</g>
<g style="fill:#840000; fill-opacity:0.0; 
stroke:#840000; stroke-width:60; stroke-opacity:1; 
stroke-linecap:round; stroke-linejoin:round;">
<polyline fill="none;"
points="66000,47000
65000,47000
" /> 
</g>
<g style="fill:#840000; fill-opacity:1.0; 
stroke:#840000; stroke-width:60; stroke-opacity:1; 
stroke-linecap:round; stroke-linejoin:round;">
<polyline style="fill-rule:evenodd;"
points="66000,46000
65500,47000
65000,46000
" /> 
</g>
<g style="fill:#840000; fill-opacity:0.0; 
stroke:#840000; stroke-width:60; stroke-opacity:1; 
stroke-linecap:round; stroke-linejoin:round;">
<polyline fill="none;"
points="65100,47150
64700,47600
64950,47550
" /> 
<polyline fill="none;"
points="65250,47300
64850,47750
65100,47700
" /> 
<path d="M65500 46000
L65500 44500
" />
<path d="M65380 45140
L65380 45360
" />
<path d="M65380 45250
L64980 45250
L65040 45290
L65080 45330
L65100 45360
" />
<path d="M65500 47000
L65500 48500
" />
<path d="M65020 47860
L65000 47840
L64980 47810
L64980 47710
L65000 47670
L65020 47650
L65060 47640
L65100 47640
L65150 47650
L65380 47880
L65380 47640
" />
</g>
<g style="fill:#008484; fill-opacity:0.0; 
stroke:#008484; stroke-width:60; stroke-opacity:1; 
stroke-linecap:round; stroke-linejoin:round;">
<path d="M66760 46870
L66260 46870
L66260 46750
L66280 46680
L66330 46630
L66380 46610
L66470 46590
L66540 46590
L66640 46610
L66680 46630
L66730 46680
L66760 46750
L66760 46870
" />
<path d="M66260 46420
L66260 46110
L66450 46280
L66450 46200
L66470 46160
L66490 46130
L66540 46110
L66660 46110
L66710 46130
L66730 46160
L66760 46200
L66760 46350
L66730 46390
L66710 46420
" />
<path d="M64760 46350
L64520 46510
" />
<path d="M64760 46630
L64260 46630
L64260 46440
L64280 46390
L64300 46370
L64350 46350
L64420 46350
L64470 46370
L64490 46390
L64520 46440
L64520 46630
" />
</g>
<g style="fill:#008484; fill-opacity:0.0; 
stroke:#008484; stroke-width:0; stroke-opacity:1; 
stroke-linecap:round; stroke-linejoin:round;">
</g>
<g style="fill:#840000; fill-opacity:0.0; 
stroke:#840000; stroke-width:60; stroke-opacity:1; 
stroke-linecap:round; stroke-linejoin:round;">
<polyline fill="none;"
points="63500,47000
62500,47000
" /> 
</g>
<g style="fill:#840000; fill-opacity:1.0; 
stroke:#840000; stroke-width:60; stroke-opacity:1; 
stroke-linecap:round; stroke-linejoin:round;">
<polyline style="fill-rule:evenodd;"
points="63500,46000
63000,47000
62500,46000
" /> 
</g>
<g style="fill:#840000; fill-opacity:0.0; 
stroke:#840000; stroke-width:60; stroke-opacity:1; 
stroke-linecap:round; stroke-linejoin:round;">
<polyline fill="none;"
points="62600,47150
62200,47600
62450,47550
" /> 
<polyline fill="none;"
points="62750,47300
62350,47750
62600,47700
" /> 
<path d="M63000 46000
L63000 44500
" />
<path d="M62880 45140
L62880 45360
" />
<path d="M62880 45250
L62480 45250
L62540 45290
L62580 45330
L62600 45360
" />
<path d="M63000 47000
L63000 48500
" />
<path d="M62520 47860
L62500 47840
L62480 47810
L62480 47710
L62500 47670
L62520 47650
L62560 47640
L62600 47640
L62650 47650
L62880 47880
L62880 47640
" />
</g>
<g style="fill:#008484; fill-opacity:0.0; 
stroke:#008484; stroke-width:60; stroke-opacity:1; 
stroke-linecap:round; stroke-linejoin:round;">
<path d="M64260 46870
L63760 46870
L63760 46750
L63780 46680
L63830 46630
L63880 46610
L63970 46590
L64040 46590
L64140 46610
L64180 46630
L64230 46680
L64260 46750
L64260 46870
" />
<path d="M63800 46390
L63780 46370
L63760 46320
L63760 46200
L63780 46160
L63800 46130
L63850 46110
L63900 46110
L63970 46130
L64260 46420
L64260 46110
" />
<path d="M62260 46350
L62020 46510
" />
<path d="M62260 46630
L61760 46630
L61760 46440
L61780 46390
L61800 46370
L61850 46350
L61920 46350
L61970 46370
L61990 46390
L62020 46440
L62020 46630
" />
</g>
<g style="fill:#008484; fill-opacity:0.0; 
stroke:#008484; stroke-width:0; stroke-opacity:1; 
stroke-linecap:round; stroke-linejoin:round;">
</g>
<g style="fill:#840000; fill-opacity:0.0; 
stroke:#840000; stroke-width:60; stroke-opacity:1; 
stroke-linecap:round; stroke-linejoin:round;">
<polyline fill="none;"
points="61000,47000
60000,47000
" /> 
</g>
<g style="fill:#840000; fill-opacity:1.0; 
stroke:#840000; stroke-width:60; stroke-opacity:1; 
stroke-linecap:round; stroke-linejoin:round;">
<polyline style="fill-rule:evenodd;"
points="61000,46000
60500,47000
60000,46000
" /> 
</g>
<g style="fill:#840000; fill-opacity:0.0; 
stroke:#840000; stroke-width:60; stroke-opacity:1; 
stroke-linecap:round; stroke-linejoin:round;">
<polyline fill="none;"
points="60100,47150
59700,47600
59950,47550
" /> 
<polyline fill="none;"
points="60250,47300
59850,47750
60100,47700
" /> 
<path d="M60500 46000
L60500 44500
" />
<path d="M60380 45140
L60380 45360
" />
<path d="M60380 45250
L59980 45250
L60040 45290
L60080 45330
L60100 45360
" />
<path d="M60500 47000
L60500 48500
" />
<path d="M60020 47860
L60000 47840
L59980 47810
L59980 47710
L60000 47670
L60020 47650
L60060 47640
L60100 47640
L60150 47650
L60380 47880
L60380 47640
" />
</g>
<g style="fill:#008484; fill-opacity:0.0; 
stroke:#008484; stroke-width:60; stroke-opacity:1; 
stroke-linecap:round; stroke-linejoin:round;">
<path d="M61760 46870
L61260 46870
L61260 46750
L61280 46680
L61330 46630
L61380 46610
L61470 46590
L61540 46590
L61640 46610
L61680 46630
L61730 46680
L61760 46750
L61760 46870
" />
<path d="M61760 46110
L61760 46390
" />
<path d="M61760 46250
L61260 46250
L61330 46300
L61380 46350
L61400 46390
" />
<path d="M59760 46350
L59520 46510
" />
<path d="M59760 46630
L59260 46630
L59260 46440
L59280 46390
L59300 46370
L59350 46350
L59420 46350
L59470 46370
L59490 46390
L59520 46440
L59520 46630
" />
</g> 
</svg>
